<svg xmlns="http://www.w3.org/2000/svg" id="192247858" viewBox="0 0 369.89473684210526 91.88691530579734" height="91.88691530579734" width="369.89473684210526" style="width: 369.895px; height: 91.8869px; position: absolute; top: 50%; left: 50%; transform: translate(-50%, -50%) scale(0.83294); z-index: 0; cursor: pointer; overflow: visible;"><defs id="SvgjsDefs1001"/><g id="SvgjsG1007" featurekey="symbolFeature-0" transform="matrix(0.9909726340066092,0,0,0.9909726340066092,-3.6940257650422272,-3.660038859610039)" fill="#ffffff"><title xmlns="http://www.w3.org/2000/svg">icons</title><path xmlns="http://www.w3.org/2000/svg" d="M93.67,50c-0.4,9-8.84,14.39-15.12,19.54-6.08,5-10.27,11.3-15.62,17-7.09,7.51-15.66,9.2-23.62,1.85-5.69-5.25-9.59-12.08-15.48-17.16S9.3,61.23,7.17,53.25C4.73,44.13,13,37.56,19.28,32.53S30.14,22,35.27,16C41.18,9,49.1,3.23,58,9.13,65.36,14,69.51,22.59,76.1,28.4,82.85,34.34,93.22,39.95,93.67,50c0.09,1.92,3.09,1.93,3,0-0.43-9.53-8.15-15.31-15-20.84C74.09,23,69.22,14.46,61.78,8.27,55.37,2.93,47.38,2,40.4,6.88,32.57,12.37,28,21.39,20.73,27.51,14.33,32.87,5.7,38.28,4,47.13c-1.74,9.11,5.18,15.93,11.6,21.2,3.6,3,7.34,5.74,10.47,9.22s6,7.57,9.28,11.07C41,94.63,48.71,98.71,56.86,95c9.45-4.35,14.2-15.05,21.84-21.65C86.18,66.85,96.18,61,96.67,50,96.76,48.07,93.76,48.07,93.67,50Z"/></g><g id="SvgjsG1008" featurekey="nameFeature-0" transform="matrix(1.3520039710199143,0,0,1.3520039710199143,112.16224161116928,10.830032455026966)" fill="#ffffff"><path d="M19.32 30.880000000000003 c-2.52 1.64 -3.76 2.12 -5.48 2.12 c-1.2 0 -2.32 -0.32 -3.4 -0.96 c-2.12 -1.28 -3.56 -3.6 -3.56 -6 c0 -1.28 0.32 -2.48 0.96 -3.56 c1.24 -2.16 3.6 -3.44 6 -3.44 c1.52 0 2.88 0.44 4.04 1.28 c0.2 0.12 0.44 0.28 0.72 0.56 l0.6 0.44 l2.68 -3.16 l-0.44 -0.44 c-0.28 -0.28 -0.64 -0.52 -1.08 -0.8 c-1.88 -1.44 -4.08 -2.16 -6.52 -2.16 c-3 0 -5.76 1.16 -7.96 3.28 c-2.12 2.24 -3.32 5 -3.32 8 s1.2 5.84 3.32 7.96 s4.96 3.32 7.96 3.32 c2.16 0 4.16 -0.6 6.04 -1.8 l-0.8 -1.2 c-1.64 1.08 -3.36 1.6 -5.24 1.6 c-2.6 0 -5.08 -1.04 -6.96 -2.92 s-2.88 -4.36 -2.88 -6.96 s1 -5.04 2.88 -6.92 c1.88 -1.92 4.36 -2.92 6.96 -2.92 c1.96 0 3.84 0.6 5.72 1.84 l0.32 0.28 l-0.88 1 c-0.12 -0.04 -0.2 -0.08 -0.28 -0.16 c-1.48 -1 -3.12 -1.52 -4.88 -1.52 c-1.56 0 -2.96 0.36 -4.2 1.08 c-2.52 1.48 -4.2 4.4 -4.2 7.32 c0 1.4 0.4 2.8 1.16 4.12 c1.56 2.68 4.4 4.32 7.24 4.32 c1.88 0 3.4 -0.56 5.68 -2 l2.24 3.32 c-2.92 1.92 -5.2 2.72 -7.92 2.72 c-2.24 0 -4.32 -0.56 -6.24 -1.68 c-3.88 -2.24 -6.28 -6.32 -6.28 -10.8 c0 -2.24 0.56 -4.32 1.68 -6.28 c2.24 -3.84 6.36 -6.24 10.84 -6.24 c3.16 0 6.16 1.16 8.44 3.28 l0.24 0.2 l0.32 0.32 l1 -1.04 l-0.56 -0.56 c-2.56 -2.28 -5.92 -3.6 -9.44 -3.6 c-2.52 0 -4.84 0.6 -6.96 1.84 c-4.24 2.44 -7 7.12 -7 12.08 c0 2.44 0.64 4.76 1.92 6.92 c2.52 4.32 7.04 7.04 12.04 7.04 c3.16 0 5.8 -1 9.36 -3.44 l0.56 -0.36 l-3.8 -5.72 z M30.165 12 l6.96 0 l0 9.24 l-1.48 0 l0 -7.76 l-4.04 0 l0 25.04 l4.04 0 l0 -7.72 l1.48 0 l0 9.2 l-6.96 0 l0 -28 z M32.925 14.64 l1.44 0 l0 7.84 l12.2 0 l0 -10.48 l1.4 0 l0 11.88 l-15.04 0 l0 -9.24 z M52.245 13.48 l-1.36 0 l0 10.52 l-1.44 0 l0 -12 l4.2 0 l0 28 l-1.4 0 l0 -26.52 z M46.565 29.52 l-12.2 0 l0 8.04 l-1.48 0 l0 -9.52 l15.08 0 l0 10.48 l1.48 0 l0 -11.8 l-16.56 0 l0 -1.4 l18 0 l0 14.68 l-4.32 0 l0 -10.48 z M65.45 37.52 l1.76 0 l1.4 -3.36 l10.44 0.04 l2.56 5.8 l7.36 -0.04 l-12.6 -27.96 l-2.56 0 l-12.52 27.96 l7.8 0 l1.36 -3.2 l7.96 0 l-0.6 -1.36 l-8.24 0 l-1.28 3.16 l-4.76 0 l11.08 -25.2 l0.96 0 l11.12 25.2 l-4.24 0 l-2.56 -5.72 l-12.4 0 z M70.21 30.48 l4.88 -11.64 l8.2 18.64 l1.64 0 l-9.84 -21.92 l-7.2 16.16 l11.6 0 l-4.4 -9.72 l-3.04 7.32 l1.56 0 l1.48 -3.64 l2.2 4.8 l-7.08 0 z M106.89500000000001 17.2 l9.56 0 l0 -3.8 l-17 0 l0 1.24 l15.64 0 l0 1.44 l-17.08 0 l0 -4.12 l19.88 0 l0 6.68 l-9.56 0 l0 18.72 l-1.44 0 l0 -20.16 z M104.215 18.64 l-6.2 0 l0 -1.44 l7.64 0 l0 21.32 l4 0 l0 -18.64 l1.44 0 l0 20.12 l-6.88 0 l0 -21.36 z M152.26500000000001 37.52 l1.76 0 l1.4 -3.36 l10.44 0.04 l2.56 5.8 l7.36 -0.04 l-12.6 -27.96 l-2.56 0 l-12.52 27.96 l7.8 0 l1.36 -3.2 l7.96 0 l-0.6 -1.36 l-8.24 0 l-1.28 3.16 l-4.76 0 l11.08 -25.2 l0.96 0 l11.12 25.2 l-4.24 0 l-2.56 -5.72 l-12.4 0 z M157.025 30.48 l4.88 -11.64 l8.2 18.64 l1.64 0 l-9.84 -21.92 l-7.2 16.16 l11.6 0 l-4.4 -9.72 l-3.04 7.32 l1.56 0 l1.48 -3.64 l2.2 4.8 l-7.08 0 z M183.71 12 l4.2 0 l0 25.32 l-1.44 0 l0 -23.88 l-1.32 0 l0 25.12 l4.04 0 l0 -26.56 l1.44 0 l0 28 l-6.92 0 l0 -28 z"/></g></svg>